<?xml version="1.0" encoding="UTF-8" standalone="no"?>
<!DOCTYPE svg PUBLIC "-//W3C//DTD SVG 1.1//EN"
 "http://www.w3.org/Graphics/SVG/1.1/DTD/svg11.dtd">
<!-- Generated by graphviz version 2.43.0 (0)
 -->
<!-- Title: sourcetree Pages: 1 -->
<svg width="532pt" height="260pt"
 viewBox="0.00 0.00 532.00 260.00" xmlns="http://www.w3.org/2000/svg" xmlns:xlink="http://www.w3.org/1999/xlink">
<g id="graph0" class="graph" transform="scale(1 1) rotate(0) translate(4 256)">
<title>sourcetree</title>
<polygon fill="white" stroke="transparent" points="-4,4 -4,-256 528,-256 528,4 -4,4"/>
<!-- MulleObjC&#45;startup -->
<g id="node1" class="node">
<title>MulleObjC&#45;startup</title>
<polygon fill="yellow" stroke="black" points="244.5,-252 95.5,-252 95.5,-216 244.5,-216 244.5,-252"/>
<text text-anchor="middle" x="170" y="-230.3" font-family="Times,serif" font-size="14.00">MulleObjC&#45;startup</text>
</g>
<!-- mulle&#45;atexit -->
<g id="node2" class="node">
<title>mulle&#45;atexit</title>
<g id="a_node2"><a xlink:href="https://github.com/mulle-core/mulle-atexit" xlink:title="mulle&#45;atexit">
<polygon fill="lightgrey" stroke="black" points="102,-180 0,-180 0,-144 102,-144 102,-180"/>
<text text-anchor="middle" x="51" y="-158.3" font-family="Times,serif" font-size="14.00">mulle&#45;atexit</text>
</a>
</g>
</g>
<!-- MulleObjC&#45;startup&#45;&gt;mulle&#45;atexit -->
<g id="edge5" class="edge">
<title>MulleObjC&#45;startup&#45;&gt;mulle&#45;atexit</title>
<path fill="none" stroke="black" d="M140.89,-215.88C125.33,-206.72 105.98,-195.34 89.22,-185.48"/>
<polygon fill="black" stroke="black" points="90.62,-182.24 80.22,-180.19 87.07,-188.28 90.62,-182.24"/>
</g>
<!-- mulle&#45;atinit -->
<g id="node3" class="node">
<title>mulle&#45;atinit</title>
<g id="a_node3"><a xlink:href="https://github.com/mulle-core/mulle-atinit" xlink:title="mulle&#45;atinit">
<polygon fill="lightgrey" stroke="black" points="219.5,-180 120.5,-180 120.5,-144 219.5,-144 219.5,-180"/>
<text text-anchor="middle" x="170" y="-158.3" font-family="Times,serif" font-size="14.00">mulle&#45;atinit</text>
</a>
</g>
</g>
<!-- MulleObjC&#45;startup&#45;&gt;mulle&#45;atinit -->
<g id="edge6" class="edge">
<title>MulleObjC&#45;startup&#45;&gt;mulle&#45;atinit</title>
<path fill="none" stroke="black" d="M170,-215.7C170,-207.98 170,-198.71 170,-190.11"/>
<polygon fill="black" stroke="black" points="173.5,-190.1 170,-180.1 166.5,-190.1 173.5,-190.1"/>
</g>
<!-- MulleObjC -->
<g id="node7" class="node">
<title>MulleObjC</title>
<g id="a_node7"><a xlink:href="https://github.com/mulle-objc/MulleObjC" xlink:title="MulleObjC">
<polygon fill="lightgrey" stroke="black" points="330,-180 238,-180 238,-144 330,-144 330,-180"/>
<text text-anchor="middle" x="284" y="-158.3" font-family="Times,serif" font-size="14.00">MulleObjC</text>
</a>
</g>
</g>
<!-- MulleObjC&#45;startup&#45;&gt;MulleObjC -->
<g id="edge7" class="edge">
<title>MulleObjC&#45;startup&#45;&gt;MulleObjC</title>
<path fill="none" stroke="black" d="M197.89,-215.88C212.79,-206.72 231.33,-195.34 247.38,-185.48"/>
<polygon fill="black" stroke="black" points="249.31,-188.41 256.01,-180.19 245.65,-182.44 249.31,-188.41"/>
</g>
<!-- mulle&#45;core -->
<g id="node4" class="node">
<title>mulle&#45;core</title>
<g id="a_node4"><a xlink:href="https://github.com/mulle-core/mulle-core" xlink:title="mulle&#45;core">
<polygon fill="lightgrey" stroke="black" points="494,-36 402,-36 402,0 494,0 494,-36"/>
<text text-anchor="middle" x="448" y="-14.3" font-family="Times,serif" font-size="14.00">mulle&#45;core</text>
</a>
</g>
</g>
<!-- mulle&#45;objc&#45;cc -->
<g id="node5" class="node">
<title>mulle&#45;objc&#45;cc</title>
<g id="a_node5"><a xlink:href="https://github.com/mulle-cc/mulle-objc-cc" xlink:title="mulle&#45;objc&#45;cc">
<polygon fill="lightgrey" stroke="black" points="196,-108 86,-108 86,-72 196,-72 196,-108"/>
<text text-anchor="middle" x="141" y="-86.3" font-family="Times,serif" font-size="14.00">mulle&#45;objc&#45;cc</text>
</a>
</g>
</g>
<!-- mulle&#45;objc&#45;debug -->
<g id="node6" class="node">
<title>mulle&#45;objc&#45;debug</title>
<g id="a_node6"><a xlink:href="https://github.com/mulle-objc/mulle-objc-debug" xlink:title="mulle&#45;objc&#45;debug">
<polygon fill="lightgrey" stroke="black" points="353.5,-108 214.5,-108 214.5,-72 353.5,-72 353.5,-108"/>
<text text-anchor="middle" x="284" y="-86.3" font-family="Times,serif" font-size="14.00">mulle&#45;objc&#45;debug</text>
</a>
</g>
</g>
<!-- MulleObjC&#45;&gt;mulle&#45;objc&#45;cc -->
<g id="edge1" class="edge">
<title>MulleObjC&#45;&gt;mulle&#45;objc&#45;cc</title>
<path fill="none" stroke="black" d="M249.02,-143.88C229.8,-134.47 205.77,-122.71 185.26,-112.67"/>
<polygon fill="black" stroke="black" points="186.64,-109.44 176.12,-108.19 183.56,-115.73 186.64,-109.44"/>
</g>
<!-- MulleObjC&#45;&gt;mulle&#45;objc&#45;debug -->
<g id="edge2" class="edge">
<title>MulleObjC&#45;&gt;mulle&#45;objc&#45;debug</title>
<path fill="none" stroke="black" d="M284,-143.7C284,-135.98 284,-126.71 284,-118.11"/>
<polygon fill="black" stroke="black" points="287.5,-118.1 284,-108.1 280.5,-118.1 287.5,-118.1"/>
</g>
<!-- mulle&#45;objc&#45;runtime -->
<g id="node8" class="node">
<title>mulle&#45;objc&#45;runtime</title>
<g id="a_node8"><a xlink:href="https://github.com/mulle-objc/mulle-objc-runtime" xlink:title="mulle&#45;objc&#45;runtime">
<polygon fill="lightgrey" stroke="black" points="524,-108 372,-108 372,-72 524,-72 524,-108"/>
<text text-anchor="middle" x="448" y="-86.3" font-family="Times,serif" font-size="14.00">mulle&#45;objc&#45;runtime</text>
</a>
</g>
</g>
<!-- MulleObjC&#45;&gt;mulle&#45;objc&#45;runtime -->
<g id="edge3" class="edge">
<title>MulleObjC&#45;&gt;mulle&#45;objc&#45;runtime</title>
<path fill="none" stroke="black" d="M324.12,-143.88C346.64,-134.26 374.92,-122.19 398.77,-112.01"/>
<polygon fill="black" stroke="black" points="400.19,-115.21 408.01,-108.07 397.44,-108.77 400.19,-115.21"/>
</g>
<!-- mulle&#45;objc&#45;runtime&#45;&gt;mulle&#45;core -->
<g id="edge4" class="edge">
<title>mulle&#45;objc&#45;runtime&#45;&gt;mulle&#45;core</title>
<path fill="none" stroke="black" d="M448,-71.7C448,-63.98 448,-54.71 448,-46.11"/>
<polygon fill="black" stroke="black" points="451.5,-46.1 448,-36.1 444.5,-46.1 451.5,-46.1"/>
</g>
</g>
</svg>
