<?xml version="1.0" encoding="UTF-8" standalone="no"?>
<!DOCTYPE svg PUBLIC "-//W3C//DTD SVG 1.1//EN"
 "http://www.w3.org/Graphics/SVG/1.1/DTD/svg11.dtd">
<!-- Generated by graphviz version 2.43.0 (0)
 -->
<!-- Title: sourcetree Pages: 1 -->
<svg width="1195pt" height="260pt"
 viewBox="0.00 0.00 1195.00 260.00" xmlns="http://www.w3.org/2000/svg" xmlns:xlink="http://www.w3.org/1999/xlink">
<g id="graph0" class="graph" transform="scale(1 1) rotate(0) translate(4 256)">
<title>sourcetree</title>
<polygon fill="white" stroke="transparent" points="-4,4 -4,-256 1191,-256 1191,4 -4,4"/>
<!-- MulleObjC&#45;startup -->
<g id="node1" class="node">
<title>MulleObjC&#45;startup</title>
<polygon fill="yellow" stroke="black" points="744.5,-252 595.5,-252 595.5,-216 744.5,-216 744.5,-252"/>
<text text-anchor="middle" x="670" y="-230.3" font-family="Times,serif" font-size="14.00">MulleObjC&#45;startup</text>
</g>
<!-- mulle&#45;atinit -->
<g id="node2" class="node">
<title>mulle&#45;atinit</title>
<polygon fill="lightgrey" stroke="black" points="295.5,-180 196.5,-180 196.5,-144 295.5,-144 295.5,-180"/>
<text text-anchor="middle" x="246" y="-158.3" font-family="Times,serif" font-size="14.00">mulle&#45;atinit</text>
</g>
<!-- MulleObjC&#45;startup&#45;&gt;mulle&#45;atinit -->
<g id="edge15" class="edge">
<title>MulleObjC&#45;startup&#45;&gt;mulle&#45;atinit</title>
<path fill="none" stroke="black" d="M595.17,-220.65C512.58,-207.01 381.31,-185.34 305.45,-172.82"/>
<polygon fill="black" stroke="black" points="306.01,-169.36 295.58,-171.18 304.87,-176.27 306.01,-169.36"/>
</g>
<!-- MulleObjC -->
<g id="node11" class="node">
<title>MulleObjC</title>
<polygon fill="lightgrey" stroke="black" points="716,-180 624,-180 624,-144 716,-144 716,-180"/>
<text text-anchor="middle" x="670" y="-158.3" font-family="Times,serif" font-size="14.00">MulleObjC</text>
</g>
<!-- MulleObjC&#45;startup&#45;&gt;MulleObjC -->
<g id="edge16" class="edge">
<title>MulleObjC&#45;startup&#45;&gt;MulleObjC</title>
<path fill="none" stroke="black" d="M670,-215.7C670,-207.98 670,-198.71 670,-190.11"/>
<polygon fill="black" stroke="black" points="673.5,-190.1 670,-180.1 666.5,-190.1 673.5,-190.1"/>
</g>
<!-- mulle&#45;atexit -->
<g id="node17" class="node">
<title>mulle&#45;atexit</title>
<polygon fill="lightgrey" stroke="black" points="836,-180 734,-180 734,-144 836,-144 836,-180"/>
<text text-anchor="middle" x="785" y="-158.3" font-family="Times,serif" font-size="14.00">mulle&#45;atexit</text>
</g>
<!-- MulleObjC&#45;startup&#45;&gt;mulle&#45;atexit -->
<g id="edge14" class="edge">
<title>MulleObjC&#45;startup&#45;&gt;mulle&#45;atexit</title>
<path fill="none" stroke="black" d="M698.13,-215.88C713.17,-206.72 731.87,-195.34 748.06,-185.48"/>
<polygon fill="black" stroke="black" points="750.04,-188.38 756.76,-180.19 746.4,-182.4 750.04,-188.38"/>
</g>
<!-- mulle&#45;dlfcn -->
<g id="node3" class="node">
<title>mulle&#45;dlfcn</title>
<polygon fill="lightgrey" stroke="black" points="134,-108 38,-108 38,-72 134,-72 134,-108"/>
<text text-anchor="middle" x="86" y="-86.3" font-family="Times,serif" font-size="14.00">mulle&#45;dlfcn</text>
</g>
<!-- mulle&#45;atinit&#45;&gt;mulle&#45;dlfcn -->
<g id="edge1" class="edge">
<title>mulle&#45;atinit&#45;&gt;mulle&#45;dlfcn</title>
<path fill="none" stroke="black" d="M206.86,-143.88C184.99,-134.31 157.54,-122.3 134.34,-112.15"/>
<polygon fill="black" stroke="black" points="135.58,-108.87 125.01,-108.07 132.77,-115.28 135.58,-108.87"/>
</g>
<!-- mulle&#45;thread -->
<g id="node4" class="node">
<title>mulle&#45;thread</title>
<polygon fill="lightgrey" stroke="black" points="300,-108 192,-108 192,-72 300,-72 300,-108"/>
<text text-anchor="middle" x="246" y="-86.3" font-family="Times,serif" font-size="14.00">mulle&#45;thread</text>
</g>
<!-- mulle&#45;atinit&#45;&gt;mulle&#45;thread -->
<g id="edge2" class="edge">
<title>mulle&#45;atinit&#45;&gt;mulle&#45;thread</title>
<path fill="none" stroke="black" d="M246,-143.7C246,-135.98 246,-126.71 246,-118.11"/>
<polygon fill="black" stroke="black" points="249.5,-118.1 246,-108.1 242.5,-118.1 249.5,-118.1"/>
</g>
<!-- dlfcn&#45;win32 -->
<g id="node8" class="node">
<title>dlfcn&#45;win32</title>
<polygon fill="lightgrey" stroke="black" points="100,-36 0,-36 0,0 100,0 100,-36"/>
<text text-anchor="middle" x="50" y="-14.3" font-family="Times,serif" font-size="14.00">dlfcn&#45;win32</text>
</g>
<!-- mulle&#45;dlfcn&#45;&gt;dlfcn&#45;win32 -->
<g id="edge5" class="edge">
<title>mulle&#45;dlfcn&#45;&gt;dlfcn&#45;win32</title>
<path fill="none" stroke="black" d="M77.1,-71.7C73,-63.73 68.05,-54.1 63.51,-45.26"/>
<polygon fill="black" stroke="black" points="66.48,-43.4 58.8,-36.1 60.26,-46.6 66.48,-43.4"/>
</g>
<!-- mintomic -->
<g id="node18" class="node">
<title>mintomic</title>
<polygon fill="lightgrey" stroke="black" points="201.5,-36 118.5,-36 118.5,0 201.5,0 201.5,-36"/>
<text text-anchor="middle" x="160" y="-14.3" font-family="Times,serif" font-size="14.00">mintomic</text>
</g>
<!-- mulle&#45;thread&#45;&gt;mintomic -->
<g id="edge17" class="edge">
<title>mulle&#45;thread&#45;&gt;mintomic</title>
<path fill="none" stroke="black" d="M224.74,-71.7C213.91,-62.88 200.58,-52.03 188.84,-42.47"/>
<polygon fill="black" stroke="black" points="190.98,-39.7 181.01,-36.1 186.56,-45.13 190.98,-39.7"/>
</g>
<!-- mulle&#45;c11 -->
<g id="node19" class="node">
<title>mulle&#45;c11</title>
<polygon fill="lightgrey" stroke="black" points="306,-36 220,-36 220,0 306,0 306,-36"/>
<text text-anchor="middle" x="263" y="-14.3" font-family="Times,serif" font-size="14.00">mulle&#45;c11</text>
</g>
<!-- mulle&#45;thread&#45;&gt;mulle&#45;c11 -->
<g id="edge18" class="edge">
<title>mulle&#45;thread&#45;&gt;mulle&#45;c11</title>
<path fill="none" stroke="black" d="M250.2,-71.7C252.1,-63.9 254.38,-54.51 256.48,-45.83"/>
<polygon fill="black" stroke="black" points="259.89,-46.65 258.85,-36.1 253.08,-45 259.89,-46.65"/>
</g>
<!-- mulle&#45;container -->
<g id="node5" class="node">
<title>mulle&#45;container</title>
<polygon fill="lightgrey" stroke="black" points="466,-108 338,-108 338,-72 466,-72 466,-108"/>
<text text-anchor="middle" x="402" y="-86.3" font-family="Times,serif" font-size="14.00">mulle&#45;container</text>
</g>
<!-- mulle&#45;allocator -->
<g id="node6" class="node">
<title>mulle&#45;allocator</title>
<polygon fill="lightgrey" stroke="black" points="447.5,-36 324.5,-36 324.5,0 447.5,0 447.5,-36"/>
<text text-anchor="middle" x="386" y="-14.3" font-family="Times,serif" font-size="14.00">mulle&#45;allocator</text>
</g>
<!-- mulle&#45;container&#45;&gt;mulle&#45;allocator -->
<g id="edge3" class="edge">
<title>mulle&#45;container&#45;&gt;mulle&#45;allocator</title>
<path fill="none" stroke="black" d="M398.04,-71.7C396.28,-63.98 394.16,-54.71 392.2,-46.11"/>
<polygon fill="black" stroke="black" points="395.55,-45.07 389.91,-36.1 388.73,-46.63 395.55,-45.07"/>
</g>
<!-- mulle&#45;data -->
<g id="node7" class="node">
<title>mulle&#45;data</title>
<polygon fill="lightgrey" stroke="black" points="558,-36 466,-36 466,0 558,0 558,-36"/>
<text text-anchor="middle" x="512" y="-14.3" font-family="Times,serif" font-size="14.00">mulle&#45;data</text>
</g>
<!-- mulle&#45;container&#45;&gt;mulle&#45;data -->
<g id="edge4" class="edge">
<title>mulle&#45;container&#45;&gt;mulle&#45;data</title>
<path fill="none" stroke="black" d="M428.91,-71.88C443.16,-62.81 460.85,-51.55 476.24,-41.76"/>
<polygon fill="black" stroke="black" points="478.43,-44.51 484.99,-36.19 474.67,-38.61 478.43,-44.51"/>
</g>
<!-- mulle&#45;fprintf -->
<g id="node9" class="node">
<title>mulle&#45;fprintf</title>
<polygon fill="lightgrey" stroke="black" points="591.5,-108 484.5,-108 484.5,-72 591.5,-72 591.5,-108"/>
<text text-anchor="middle" x="538" y="-86.3" font-family="Times,serif" font-size="14.00">mulle&#45;fprintf</text>
</g>
<!-- mulle&#45;sprintf -->
<g id="node10" class="node">
<title>mulle&#45;sprintf</title>
<polygon fill="lightgrey" stroke="black" points="685.5,-36 576.5,-36 576.5,0 685.5,0 685.5,-36"/>
<text text-anchor="middle" x="631" y="-14.3" font-family="Times,serif" font-size="14.00">mulle&#45;sprintf</text>
</g>
<!-- mulle&#45;fprintf&#45;&gt;mulle&#45;sprintf -->
<g id="edge6" class="edge">
<title>mulle&#45;fprintf&#45;&gt;mulle&#45;sprintf</title>
<path fill="none" stroke="black" d="M560.99,-71.7C572.81,-62.8 587.39,-51.82 600.18,-42.2"/>
<polygon fill="black" stroke="black" points="602.39,-44.91 608.28,-36.1 598.18,-39.32 602.39,-44.91"/>
</g>
<!-- MulleObjC&#45;&gt;mulle&#45;container -->
<g id="edge7" class="edge">
<title>MulleObjC&#45;&gt;mulle&#45;container</title>
<path fill="none" stroke="black" d="M623.93,-148.97C583.27,-138.35 523.28,-122.68 475.91,-110.31"/>
<polygon fill="black" stroke="black" points="476.57,-106.86 466.01,-107.72 474.8,-113.63 476.57,-106.86"/>
</g>
<!-- MulleObjC&#45;&gt;mulle&#45;fprintf -->
<g id="edge8" class="edge">
<title>MulleObjC&#45;&gt;mulle&#45;fprintf</title>
<path fill="none" stroke="black" d="M637.71,-143.88C620.13,-134.55 598.19,-122.92 579.37,-112.94"/>
<polygon fill="black" stroke="black" points="580.89,-109.78 570.41,-108.19 577.61,-115.97 580.89,-109.78"/>
</g>
<!-- mulle&#45;multififo -->
<g id="node12" class="node">
<title>mulle&#45;multififo</title>
<polygon fill="lightgrey" stroke="black" points="730.5,-108 609.5,-108 609.5,-72 730.5,-72 730.5,-108"/>
<text text-anchor="middle" x="670" y="-86.3" font-family="Times,serif" font-size="14.00">mulle&#45;multififo</text>
</g>
<!-- MulleObjC&#45;&gt;mulle&#45;multififo -->
<g id="edge9" class="edge">
<title>MulleObjC&#45;&gt;mulle&#45;multififo</title>
<path fill="none" stroke="black" d="M670,-143.7C670,-135.98 670,-126.71 670,-118.11"/>
<polygon fill="black" stroke="black" points="673.5,-118.1 670,-108.1 666.5,-118.1 673.5,-118.1"/>
</g>
<!-- mulle&#45;objc&#45;cc -->
<g id="node13" class="node">
<title>mulle&#45;objc&#45;cc</title>
<polygon fill="lightgrey" stroke="black" points="859,-108 749,-108 749,-72 859,-72 859,-108"/>
<text text-anchor="middle" x="804" y="-86.3" font-family="Times,serif" font-size="14.00">mulle&#45;objc&#45;cc</text>
</g>
<!-- MulleObjC&#45;&gt;mulle&#45;objc&#45;cc -->
<g id="edge10" class="edge">
<title>MulleObjC&#45;&gt;mulle&#45;objc&#45;cc</title>
<path fill="none" stroke="black" d="M702.78,-143.88C720.63,-134.55 742.9,-122.92 762,-112.94"/>
<polygon fill="black" stroke="black" points="763.85,-115.92 771.09,-108.19 760.61,-109.72 763.85,-115.92"/>
</g>
<!-- mulle&#45;objc&#45;debug -->
<g id="node14" class="node">
<title>mulle&#45;objc&#45;debug</title>
<polygon fill="lightgrey" stroke="black" points="1016.5,-108 877.5,-108 877.5,-72 1016.5,-72 1016.5,-108"/>
<text text-anchor="middle" x="947" y="-86.3" font-family="Times,serif" font-size="14.00">mulle&#45;objc&#45;debug</text>
</g>
<!-- MulleObjC&#45;&gt;mulle&#45;objc&#45;debug -->
<g id="edge11" class="edge">
<title>MulleObjC&#45;&gt;mulle&#45;objc&#45;debug</title>
<path fill="none" stroke="black" d="M716.15,-146.5C719.14,-145.63 722.11,-144.79 725,-144 771.88,-131.17 824.81,-118.47 867.22,-108.72"/>
<polygon fill="black" stroke="black" points="868.24,-112.07 877.21,-106.43 866.68,-105.25 868.24,-112.07"/>
</g>
<!-- mulle&#45;objc&#45;runtime -->
<g id="node15" class="node">
<title>mulle&#45;objc&#45;runtime</title>
<polygon fill="lightgrey" stroke="black" points="1187,-108 1035,-108 1035,-72 1187,-72 1187,-108"/>
<text text-anchor="middle" x="1111" y="-86.3" font-family="Times,serif" font-size="14.00">mulle&#45;objc&#45;runtime</text>
</g>
<!-- MulleObjC&#45;&gt;mulle&#45;objc&#45;runtime -->
<g id="edge12" class="edge">
<title>MulleObjC&#45;&gt;mulle&#45;objc&#45;runtime</title>
<path fill="none" stroke="black" d="M716.05,-146.1C719.07,-145.33 722.07,-144.62 725,-144 853.57,-116.68 891.13,-128.61 1024.41,-108.17"/>
<polygon fill="black" stroke="black" points="1025.26,-111.58 1034.6,-106.57 1024.17,-104.66 1025.26,-111.58"/>
</g>
<!-- mulle&#45;concurrent -->
<g id="node16" class="node">
<title>mulle&#45;concurrent</title>
<polygon fill="lightgrey" stroke="black" points="1180.5,-36 1041.5,-36 1041.5,0 1180.5,0 1180.5,-36"/>
<text text-anchor="middle" x="1111" y="-14.3" font-family="Times,serif" font-size="14.00">mulle&#45;concurrent</text>
</g>
<!-- mulle&#45;objc&#45;runtime&#45;&gt;mulle&#45;concurrent -->
<g id="edge13" class="edge">
<title>mulle&#45;objc&#45;runtime&#45;&gt;mulle&#45;concurrent</title>
<path fill="none" stroke="black" d="M1111,-71.7C1111,-63.98 1111,-54.71 1111,-46.11"/>
<polygon fill="black" stroke="black" points="1114.5,-46.1 1111,-36.1 1107.5,-46.1 1114.5,-46.1"/>
</g>
</g>
</svg>
